REM DIRINDEX 1\2,1\3,1\4,1\6,1\5\7,1\5\8
REM DIRNAME folder01,folder02,folder03,folder04,folder05,folder06,folder07,folder08
TITLE ""
FILE "DB4500_5th_2A_47.mp3" MP3
  TRACK 01 AUDIO
    TITLE "0:"
    INDEX 01 00:00:00
  TRACK 02 AUDIO
    TITLE "2:cjc114_1554"
    INDEX 01 00:00:03
  TRACK 03 AUDIO
    TITLE "0:"
    INDEX 01 00:01:21
  TRACK 04 AUDIO
    TITLE "3:cjc114_1555"
    INDEX 01 00:01:50
  TRACK 05 AUDIO
    TITLE "0:"
    INDEX 01 00:03:00
  TRACK 06 AUDIO
    TITLE "4:cjc114_1556"
    INDEX 01 00:03:27
  TRACK 07 AUDIO
    TITLE "0:"
    INDEX 01 00:06:51
  TRACK 08 AUDIO
    TITLE "2:cjc114_1557"
    INDEX 01 00:07:27
  TRACK 09 AUDIO
    TITLE "0:"
    INDEX 01 00:08:38
  TRACK 10 AUDIO
    TITLE "3:cjc114_1558"
    INDEX 01 00:08:64
  TRACK 11 AUDIO
    TITLE "0:"
    INDEX 01 00:10:12
  TRACK 12 AUDIO
    TITLE "4:cjc114_1559"
    INDEX 01 00:10:39
  TRACK 13 AUDIO
    TITLE "0:"
    INDEX 01 00:14:15
  TRACK 14 AUDIO
    TITLE "2:cjc114_1560"
    INDEX 01 00:14:70
  TRACK 15 AUDIO
    TITLE "0:"
    INDEX 01 00:16:08
  TRACK 16 AUDIO
    TITLE "3:cjc114_1561"
    INDEX 01 00:16:38
  TRACK 17 AUDIO
    TITLE "0:"
    INDEX 01 00:17:47
  TRACK 18 AUDIO
    TITLE "4:cjc114_1562"
    INDEX 01 00:17:74
  TRACK 19 AUDIO
    TITLE "0:"
    INDEX 01 00:21:33
  TRACK 20 AUDIO
    TITLE "2:cjc114_1563"
    INDEX 01 00:22:09
  TRACK 21 AUDIO
    TITLE "0:"
    INDEX 01 00:23:12
  TRACK 22 AUDIO
    TITLE "3:cjc114_1564"
    INDEX 01 00:23:40
  TRACK 23 AUDIO
    TITLE "0:"
    INDEX 01 00:24:57
  TRACK 24 AUDIO
    TITLE "4:cjc114_1565"
    INDEX 01 00:25:11
  TRACK 25 AUDIO
    TITLE "0:"
    INDEX 01 00:28:33
  TRACK 26 AUDIO
    TITLE "2:cjc114_1566"
    INDEX 01 00:29:11
  TRACK 27 AUDIO
    TITLE "0:"
    INDEX 01 00:30:14
  TRACK 28 AUDIO
    TITLE "3:cjc114_1567"
    INDEX 01 00:30:48
  TRACK 29 AUDIO
    TITLE "0:"
    INDEX 01 00:32:17
  TRACK 30 AUDIO
    TITLE "4:cjc114_1568"
    INDEX 01 00:32:47
  TRACK 31 AUDIO
    TITLE "0:"
    INDEX 01 00:35:02
  TRACK 32 AUDIO
    TITLE "2:cjc114_1569"
    INDEX 01 00:35:55
  TRACK 33 AUDIO
    TITLE "0:"
    INDEX 01 00:36:70
  TRACK 34 AUDIO
    TITLE "3:cjc114_1570"
    INDEX 01 00:37:22
  TRACK 35 AUDIO
    TITLE "0:"
    INDEX 01 00:38:71
  TRACK 36 AUDIO
    TITLE "4:cjc114_1571"
    INDEX 01 00:39:25
  TRACK 37 AUDIO
    TITLE "0:"
    INDEX 01 00:42:18
  TRACK 38 AUDIO
    TITLE "2:cjc114_1572"
    INDEX 01 00:42:70
  TRACK 39 AUDIO
    TITLE "0:"
    INDEX 01 00:44:01
  TRACK 40 AUDIO
    TITLE "3:cjc114_1573"
    INDEX 01 00:44:30
  TRACK 41 AUDIO
    TITLE "0:"
    INDEX 01 00:45:65
  TRACK 42 AUDIO
    TITLE "4:cjc114_1574"
    INDEX 01 00:46:19
  TRACK 43 AUDIO
    TITLE "0:"
    INDEX 01 00:48:71
  TRACK 44 AUDIO
    TITLE "2:cjc114_1575"
    INDEX 01 00:49:49
  TRACK 45 AUDIO
    TITLE "0:"
    INDEX 01 00:50:64
  TRACK 46 AUDIO
    TITLE "3:cjc114_1576"
    INDEX 01 00:51:16
  TRACK 47 AUDIO
    TITLE "0:"
    INDEX 01 00:52:67
  TRACK 48 AUDIO
    TITLE "4:cjc114_1577"
    INDEX 01 00:53:19
  TRACK 49 AUDIO
    TITLE "0:"
    INDEX 01 00:56:10
  TRACK 50 AUDIO
    TITLE "2:cjc114_1578"
    INDEX 01 00:56:63
  TRACK 51 AUDIO
    TITLE "0:"
    INDEX 01 00:58:17
  TRACK 52 AUDIO
    TITLE "3:cjc114_1579"
    INDEX 01 00:58:44
  TRACK 53 AUDIO
    TITLE "0:"
    INDEX 01 01:00:19
  TRACK 54 AUDIO
    TITLE "4:cjc114_1580"
    INDEX 01 01:00:47
  TRACK 55 AUDIO
    TITLE "0:"
    INDEX 01 01:04:05
  TRACK 56 AUDIO
    TITLE "2:cjc114_1581"
    INDEX 01 01:04:60
  TRACK 57 AUDIO
    TITLE "0:"
    INDEX 01 01:06:06
  TRACK 58 AUDIO
    TITLE "3:cjc114_1582"
    INDEX 01 01:06:34
  TRACK 59 AUDIO
    TITLE "0:"
    INDEX 01 01:07:70
  TRACK 60 AUDIO
    TITLE "4:cjc114_1583"
    INDEX 01 01:08:21
  TRACK 61 AUDIO
    TITLE "0:"
    INDEX 01 01:11:52
  TRACK 62 AUDIO
    TITLE "2:cjc114_1584"
    INDEX 01 01:12:30
  TRACK 63 AUDIO
    TITLE "0:"
    INDEX 01 01:13:53
  TRACK 64 AUDIO
    TITLE "3:cjc114_1585"
    INDEX 01 01:14:08
  TRACK 65 AUDIO
    TITLE "0:"
    INDEX 01 01:15:54
  TRACK 66 AUDIO
    TITLE "4:cjc114_1586"
    INDEX 01 01:16:07
  TRACK 67 AUDIO
    TITLE "0:"
    INDEX 01 01:18:74
  TRACK 68 AUDIO
    TITLE "2:cjc114_1587"
    INDEX 01 01:19:52
  TRACK 69 AUDIO
    TITLE "0:"
    INDEX 01 01:21:18
  TRACK 70 AUDIO
    TITLE "3:cjc114_1588"
    INDEX 01 01:21:47
  TRACK 71 AUDIO
    TITLE "0:"
    INDEX 01 01:23:22
  TRACK 72 AUDIO
    TITLE "4:cjc114_1589"
    INDEX 01 01:23:50
  TRACK 73 AUDIO
    TITLE "0:"
    INDEX 01 01:26:74
  TRACK 74 AUDIO
    TITLE "2:cjc114_1590"
    INDEX 01 01:27:51
  TRACK 75 AUDIO
    TITLE "0:"
    INDEX 01 01:29:07
  TRACK 76 AUDIO
    TITLE "3:cjc114_1591"
    INDEX 01 01:29:39
  TRACK 77 AUDIO
    TITLE "0:"
    INDEX 01 01:30:73
  TRACK 78 AUDIO
    TITLE "4:cjc114_1592"
    INDEX 01 01:31:28
  TRACK 79 AUDIO
    TITLE "0:"
    INDEX 01 01:34:57
